<?xml version="1.0" encoding="utf-8"?>
<!-- Generator: Adobe Illustrator 24.1.0, SVG Export Plug-In . SVG Version: 6.00 Build 0)  -->
<svg version="1.1" id="Layer_1" xmlns="http://www.w3.org/2000/svg" xmlns:xlink="http://www.w3.org/1999/xlink" x="0px" y="0px"
	 viewBox="0 0 240 234" style="enable-background:new 0 0 240 234;" xml:space="preserve">
<style type="text/css">
	.st0{fill:#000B1D;}
	.st1{fill:#FFFFFF;}
</style>
<g id="Layer_2_1_">
	<g id="Surfaces">
		<g id="Utility_Surface">
			<g id="Outline_no_shadow">
				<path class="st0" d="M42.5,0h155C221,0,240,19,240,42.5v149c0,23.5-19,42.5-42.5,42.5h-155C19,234,0,215,0,191.5v-149
					C0,19,19,0,42.5,0z"/>
			</g>
		</g>
	</g>
	<g id="Outlined_Mnemonics_Logos">
		<g id="Be">
			<path class="st1" d="M42.4,163.9V61.7c0-1,0.3-1.5,1-1.6c1.8-0.1,4.6-0.2,8.4-0.2c3.8-0.1,7.8-0.1,12.2-0.2
				c4.4-0.1,8.4-0.1,12.1-0.1c8.8,0,15.8,1,21,2.9c5.2,1.9,9.2,4.4,12,7.3c2.6,2.6,4.5,5.8,5.6,9.3c0.9,2.9,1.4,5.8,1.4,8.9
				c0.1,3.2-0.5,6.4-1.6,9.4c-0.9,2.5-2.2,4.8-3.9,6.8c-1.2,1.6-2.7,2.9-4.3,4c2.3,1.2,4.4,2.7,6.4,4.4c2.5,2.2,4.6,5,6,8
				c1.8,3.9,2.7,8.1,2.6,12.4c0.1,6.1-1.8,12.1-5.4,17.1c-3.6,4.9-8.7,8.8-15.5,11.5c-6.7,2.7-14.7,4.1-24.1,4.1H65.7
				c-3.4,0-6.5,0-9.3-0.1c-2.8-0.1-5.3-0.1-7.4-0.2c-2.1-0.1-3.9-0.1-5.4-0.1C42.8,165.3,42.4,164.8,42.4,163.9z M64.1,78.8v22.4
				h10.9c2.9,0,5.7,0.1,8.5,0.2c2,0,4,0.2,6,0.6c1.4-1.2,2.6-2.7,3.5-4.3c1-2,1.4-4.2,1.4-6.4c0.1-2.5-0.6-5-2.1-7.1
				c-1.6-1.9-3.7-3.4-6-4.1c-3.3-1-6.7-1.5-10.1-1.4h-4.7c-1.4,0-2.7,0-3.8,0.1C66.6,78.7,65.4,78.8,64.1,78.8z M64.1,120.1v26.6
				c1.8,0.1,3.6,0.2,5.5,0.2c1.8,0.1,4,0.1,6.6,0.1c3.9,0.1,7.9-0.4,11.7-1.4c2.9-0.7,5.6-2.3,7.6-4.5c1.7-2.1,2.7-4.8,2.6-7.6
				c0.1-2.7-0.7-5.3-2.1-7.6c-1.4-2.1-4-3.7-7.7-4.7c-1.5-0.4-2.9-0.6-4.4-0.8c-2-0.2-3.9-0.3-5.9-0.3L64.1,120.1z"/>
			<path class="st1" d="M186,131.3h-31.7c0.4,3,1.4,5.9,3.1,8.5c1.8,2.7,4.3,4.8,7.3,6c3.3,1.5,7.5,2.3,12.8,2.3
				c3.5,0,7-0.3,10.4-0.9c3.2-0.6,6.4-1.5,9.4-2.8c0.5-0.4,0.8-0.2,0.8,0.8v15.3c0,0.4-0.1,0.8-0.2,1.2c-0.2,0.3-0.4,0.5-0.7,0.7
				c-3.3,1.6-6.8,2.7-10.5,3.5c-4.7,0.9-9.4,1.3-14.2,1.2c-7.6,0-14-1.2-19.2-3.5c-4.9-2.1-9.2-5.4-12.6-9.5
				c-3.2-3.9-5.5-8.3-6.9-13.1c-1.4-4.7-2.1-9.6-2.1-14.6c0-5.4,0.8-10.7,2.5-15.9c1.6-5,4.1-9.6,7.5-13.7c3.3-4,7.4-7.2,12.1-9.5
				c5.2-2.4,11-3.6,16.7-3.5c5.3-0.1,10.6,0.9,15.5,3.1c4.1,1.9,7.8,4.7,10.5,8.3c2.6,3.4,4.7,7.2,6,11.4c1.3,4,1.9,8.1,1.9,12.2
				c0,2.4-0.1,4.5-0.2,6.4c-0.2,1.9-0.3,3.3-0.4,4.2c-0.1,0.7-0.7,1.3-1.4,1.3c-0.6,0-1.7,0.1-3.3,0.2c-1.6,0.2-3.5,0.3-5.8,0.3
				C191,131.2,188.6,131.3,186,131.3z M154.3,115.6h21.1c2.6,0,4.5,0,5.7-0.1c0.8,0,1.6-0.1,2.3-0.2v-1c0-1.3-0.2-2.5-0.6-3.7
				c-1.8-5.6-7.1-9.4-13-9.2c-5.5-0.3-10.7,2.6-13.3,7.6C155.4,111.1,154.6,113.3,154.3,115.6z"/>
		</g>
	</g>
</g>
</svg>
