<svg width="446" height="140" viewBox="0 0 446 140" fill="none" xmlns="http://www.w3.org/2000/svg">
<path fill-rule="evenodd" clip-rule="evenodd" d="M18.1425 78.0909C20.5969 81.0741 26.5966 85.8192 34.2318 85.8192C43.7779 85.8192 49.9141 79.1765 49.9141 63.7198C49.9141 48.9428 44.8686 41.0787 34.6413 41.0787C27.5509 41.0787 21.5512 45.9595 18.1425 50.163V78.0909ZM0.00695801 126.356V27.6576H15.0067L16.9152 37.0121C23.3244 29.8266 30.9596 26.0303 40.368 26.0303C57.6858 26.0303 69.1392 38.6383 69.1392 63.1781C69.1392 86.4966 59.0495 100.868 39.0054 100.868C28.0968 100.868 21.1417 95.3095 18.1425 92.056V126.356H0.00695801V126.356Z" fill="white"/>
<path fill-rule="evenodd" clip-rule="evenodd" d="M81.3921 77.6837C88.2096 82.836 97.2097 86.9037 104.164 86.9037C110.708 86.9037 114.253 84.0562 114.253 79.5825C114.253 74.8374 111.799 72.6684 99.9359 69.6851C84.3914 65.7542 77.8469 59.9235 77.8469 48.1285C77.8469 34.3003 88.7555 26.0303 105.118 26.0303C116.571 26.0303 126.253 30.098 133.753 36.8764L125.708 47.3155C118.889 42.4346 112.208 39.724 105.937 39.724C99.2547 39.724 95.9813 42.0287 95.9813 46.0953C95.9813 51.3832 100.755 52.8737 111.663 55.9914C126.935 60.3306 133.889 65.3471 133.889 77.2778C133.889 92.4631 122.571 101.003 105.118 101.003C91.8913 101.003 80.7108 95.5797 73.3474 88.5299L81.3921 77.6837" fill="white"/>
<path fill-rule="evenodd" clip-rule="evenodd" d="M203.884 27.6576L179.613 96.3927C172.386 117 169.114 126.763 150.16 126.763C146.206 126.763 142.114 126.22 138.024 125.135L139.388 112.391C141.57 112.798 144.842 113.341 148.524 113.341C153.706 113.341 157.387 111.985 160.25 103.308L160.932 101.275L135.842 27.6576H154.796L169.66 80.5312L185.749 27.6576H203.884" fill="white"/>
<path fill-rule="evenodd" clip-rule="evenodd" d="M227.703 52.3308H236.566L252.383 27.6576H272.291L250.882 59.3818L275.564 99.2403H254.428L235.339 67.2447H227.703V99.2403H209.567V1.62737H227.703V52.3308Z" fill="white"/>
<path fill-rule="evenodd" clip-rule="evenodd" d="M282.648 99.2403H300.646V27.6576H282.648V99.2403V99.2403ZM291.92 0C298.328 0 302.828 3.25349 302.828 9.35452C302.828 15.1841 298.328 18.4376 291.92 18.4376C285.919 18.4376 281.147 15.1841 281.147 9.35452C281.147 3.25349 285.919 0 291.92 0V0Z" fill="white"/>
<path fill-rule="evenodd" clip-rule="evenodd" d="M317.006 77.6837C323.824 82.836 332.824 86.9037 339.778 86.9037C346.324 86.9037 349.869 84.0562 349.869 79.5825C349.869 74.8374 347.414 72.6684 335.551 69.6851C320.007 65.7542 313.462 59.9235 313.462 48.1285C313.462 34.3003 324.37 26.0303 340.733 26.0303C352.187 26.0303 361.868 30.098 369.367 36.8764L361.322 47.3155C354.505 42.4346 347.823 39.724 341.551 39.724C334.869 39.724 331.597 42.0287 331.597 46.0953C331.597 51.3832 336.369 52.8737 347.277 55.9914C362.549 60.3306 369.505 65.3471 369.505 77.2778C369.505 92.4631 358.186 101.003 340.733 101.003C327.506 101.003 316.325 95.5797 308.962 88.5299L317.006 77.6837" fill="white"/>
<path fill-rule="evenodd" clip-rule="evenodd" d="M398.133 52.3308H406.994L422.813 27.6576H442.721L421.313 59.3818L445.993 99.2403H424.858L405.768 67.2447H398.133V99.2403H379.997V1.62737H398.133V52.3308Z" fill="white"/>
<path fill-rule="evenodd" clip-rule="evenodd" d="M314.866 103.711V116.385C316.757 114.304 319.645 112.621 322.98 112.621C328.26 112.621 331.147 116.038 331.147 121.88V139.356H324.525V123.513C324.525 120.494 323.827 118.216 320.343 118.216C318.051 118.216 316.059 119.801 314.866 121.136V139.356H308.242V103.711H314.866Z" fill="white"/>
<path fill-rule="evenodd" clip-rule="evenodd" d="M353.371 123.76C353.371 120.443 352.175 117.572 348.44 117.572C344.058 117.572 342.763 121.632 342.664 123.76H353.371ZM358.997 136.634C355.91 138.91 352.324 140 348.341 140C340.423 140 335.643 135.247 335.643 126.484C335.643 118.068 340.574 112.621 348.391 112.621C355.66 112.621 359.694 116.828 359.694 125.295C359.694 125.89 359.645 128.068 359.594 128.514H342.615C342.914 132.079 344.657 134.554 349.138 134.554C351.776 134.554 353.917 133.861 356.856 132.326L358.997 136.634V136.634Z" fill="white"/>
<path fill-rule="evenodd" clip-rule="evenodd" d="M364.819 139.356H371.442V103.711H364.819V139.356Z" fill="white"/>
<path fill-rule="evenodd" clip-rule="evenodd" d="M378.408 131.484C380.899 133.365 384.515 134.85 387.055 134.85C389.445 134.85 390.409 133.811 390.409 132.177C390.409 130.445 389.512 129.651 385.18 128.563C379.505 127.126 377.114 124.999 377.114 120.691C377.114 115.641 381.097 112.621 387.073 112.621C391.256 112.621 394.791 114.105 397.531 116.581L394.592 120.394C392.102 118.61 389.662 117.621 387.372 117.621C384.93 117.621 383.737 118.464 383.737 119.948C383.737 121.88 385.48 122.424 389.463 123.562C395.04 125.146 397.58 126.978 397.58 131.336C397.58 136.88 393.446 140 387.073 140C382.244 140 378.161 138.019 375.471 135.445L378.408 131.484" fill="white"/>
<path fill-rule="evenodd" clip-rule="evenodd" d="M418.557 123.76C418.557 120.443 417.362 117.572 413.627 117.572C409.245 117.572 407.95 121.632 407.851 123.76H418.557ZM424.184 136.634C421.096 138.91 417.51 140 413.528 140C405.61 140 400.83 135.247 400.83 126.484C400.83 118.068 405.761 112.621 413.578 112.621C420.847 112.621 424.881 116.828 424.881 125.295C424.881 125.89 424.832 128.068 424.781 128.514H407.802C408.101 132.079 409.844 134.554 414.324 134.554C416.963 134.554 419.104 133.861 422.043 132.326L424.184 136.634V136.634Z" fill="white"/>
</svg>
