<svg xmlns="http://www.w3.org/2000/svg" width="230.359" height="33.814" viewBox="0 0 230.359 33.814">
    <g id="Group_163" data-name="Group 163" transform="translate(-124 -33)">
        <g id="shortcut_logo_white" transform="translate(124 33)">
            <g id="Group_17" data-name="Group 17" transform="translate(48.079 5.636)">
                <g id="shortcut_logo_master_white_rgb">
                    <g id="word-mark">
                        <path id="Fill-1"
                            d="M10.074,22.684A16.181,16.181,0,0,1,4.6,21.768,13.226,13.226,0,0,1,0,19.038l3.311-4.051A10.943,10.943,0,0,0,10.3,17.612a3.5,3.5,0,0,0,1.832-.387,1.242,1.242,0,0,0,.634-1.11v-.053a1.19,1.19,0,0,0-.159-.616,1.619,1.619,0,0,0-.564-.511,6.944,6.944,0,0,0-1.11-.476c-.458-.159-1.057-.317-1.8-.493a32.989,32.989,0,0,1-3.188-.9,9.444,9.444,0,0,1-2.571-1.25,5.748,5.748,0,0,1-1.726-1.9,5.843,5.843,0,0,1-.634-2.853V7.009a7.061,7.061,0,0,1,.564-2.818A6.173,6.173,0,0,1,3.241,1.972,7.741,7.741,0,0,1,5.865.511,11.255,11.255,0,0,1,9.352,0a15.2,15.2,0,0,1,4.931.74A12.834,12.834,0,0,1,18.21,2.924L15.216,7.238a11.994,11.994,0,0,0-3.029-1.6A8.923,8.923,0,0,0,9.193,5.09a2.647,2.647,0,0,0-1.6.405,1.207,1.207,0,0,0-.528,1v.053a1.13,1.13,0,0,0,.176.652,1.534,1.534,0,0,0,.581.511,6.245,6.245,0,0,0,1.145.476c.476.159,1.092.317,1.832.493a23.574,23.574,0,0,1,3.329.951,10.061,10.061,0,0,1,2.536,1.321,5.186,5.186,0,0,1,1.6,1.9,5.846,5.846,0,0,1,.564,2.642v.07a6.876,6.876,0,0,1-.634,3.012,6.58,6.58,0,0,1-1.761,2.237,7.866,7.866,0,0,1-2.73,1.409,13.919,13.919,0,0,1-3.628.458"
                            fill="#fcfcfc" fill-rule="evenodd"></path>
                        <path id="Fill-4" d="M127.1,2.3h5.97v8.26h7.661V2.3h5.97V24.385h-5.97v-8.4H133.07v8.4H127.1V2.3"
                            transform="translate(-104.716 -1.895)" fill="#fcfcfc" fill-rule="evenodd"></path>
                        <path id="Fill-5"
                            d="M269.929,17.4a5.356,5.356,0,0,0,2.272-.476,5.3,5.3,0,0,0,1.744-1.268,6.217,6.217,0,0,0,1.127-1.867,6.4,6.4,0,0,0,.405-2.254v-.088a6.4,6.4,0,0,0-.405-2.254,5.763,5.763,0,0,0-2.941-3.188,5.112,5.112,0,0,0-2.272-.493,5.356,5.356,0,0,0-2.272.476,5.7,5.7,0,0,0-1.744,1.268,5.575,5.575,0,0,0-1.127,1.867,6.483,6.483,0,0,0-.387,2.272v.053a6.4,6.4,0,0,0,.405,2.254,5.964,5.964,0,0,0,1.127,1.884,5.472,5.472,0,0,0,4.068,1.814Zm-.035,5.495a11.979,11.979,0,0,1-4.667-.9,11.637,11.637,0,0,1-3.7-2.43,11.184,11.184,0,0,1-3.329-8.048v-.07a11.556,11.556,0,0,1,.881-4.456,11.079,11.079,0,0,1,2.483-3.646A11.742,11.742,0,0,1,265.3.9a12.62,12.62,0,0,1,9.352,0A11.236,11.236,0,0,1,280.8,6.939a10.985,10.985,0,0,1,.9,4.438v.07a11.254,11.254,0,0,1-.9,4.456,11.08,11.08,0,0,1-2.483,3.646A11.743,11.743,0,0,1,274.579,22,12.13,12.13,0,0,1,269.894,22.895Z"
                            transform="translate(-212.727 0)" fill="#fcfcfc" fill-rule="evenodd"></path>
                        <path id="Fill-6"
                            d="M422,12.9a3.5,3.5,0,0,0,2.36-.7,2.349,2.349,0,0,0,.828-1.9v-.07a2.306,2.306,0,0,0-.863-1.972,3.849,3.849,0,0,0-2.378-.634H418.07v5.3L422,12.9ZM412.1,2.3h10.179a12.245,12.245,0,0,1,4.209.634,7.261,7.261,0,0,1,2.8,1.761,6.95,6.95,0,0,1,1.92,5.143v.07a7.136,7.136,0,0,1-1.2,4.227,7.622,7.622,0,0,1-3.223,2.554l5.125,7.7h-6.886l-4.332-6.675H418.07v6.675H412.1Z"
                            transform="translate(-339.523 -1.895)" fill="#fcfcfc" fill-rule="evenodd"></path>
                        <path id="Fill-7" d="M544.311,7.672H537.9V2.3h18.774V7.672h-6.428V24.385h-5.935V7.672"
                            transform="translate(-443.168 -1.895)" fill="#fcfcfc" fill-rule="evenodd"></path>
                        <path id="Fill-8"
                            d="M667.219,22.895a11.288,11.288,0,0,1-4.368-.845,10.52,10.52,0,0,1-3.558-2.378A11.549,11.549,0,0,1,656,11.518v-.07a11.6,11.6,0,0,1,3.276-8.119,11.2,11.2,0,0,1,3.61-2.448A11.788,11.788,0,0,1,667.465,0a12.616,12.616,0,0,1,3.047.335,9.44,9.44,0,0,1,2.5.951,10.011,10.011,0,0,1,2.043,1.462,11.511,11.511,0,0,1,1.62,1.849L672.15,8.154a7.866,7.866,0,0,0-2.043-1.884,5.065,5.065,0,0,0-2.695-.687,4.813,4.813,0,0,0-2.1.458,5.08,5.08,0,0,0-1.62,1.233,6,6,0,0,0-1.074,1.849,6.484,6.484,0,0,0-.388,2.272v.053a6.682,6.682,0,0,0,.388,2.307,5.7,5.7,0,0,0,1.074,1.867,5.337,5.337,0,0,0,1.62,1.25,4.869,4.869,0,0,0,2.1.458,6,6,0,0,0,1.532-.176,4.839,4.839,0,0,0,1.268-.546,7.088,7.088,0,0,0,1.074-.845c.335-.335.669-.687,1-1.092l4.526,3.276a15.119,15.119,0,0,1-1.691,1.972,10.213,10.213,0,0,1-2.078,1.567,10.464,10.464,0,0,1-2.607,1.039,12.67,12.67,0,0,1-3.223.37"
                            transform="translate(-540.468)" fill="#fcfcfc" fill-rule="evenodd"></path>
                        <path id="Fill-9"
                            d="M803.433,24.79a13.2,13.2,0,0,1-4.139-.6,7.759,7.759,0,0,1-5.107-5A13.23,13.23,0,0,1,793.5,14.7V2.3h6.076V14.575a5.063,5.063,0,0,0,1.057,3.54A3.691,3.691,0,0,0,803.5,19.26a3.754,3.754,0,0,0,2.853-1.11,4.724,4.724,0,0,0,1.074-3.434V2.3h6.076V14.54a13.361,13.361,0,0,1-.722,4.614,8.4,8.4,0,0,1-2.025,3.188,8.171,8.171,0,0,1-3.153,1.849,13.5,13.5,0,0,1-4.174.6"
                            transform="translate(-653.752 -1.895)" fill="#fcfcfc" fill-rule="evenodd"></path>
                        <path id="Fill-10" d="M934.811,7.672H928.4V2.3h18.774V7.672h-6.428V24.385h-5.935V7.672"
                            transform="translate(-764.895 -1.895)" fill="#fcfcfc" fill-rule="evenodd"></path>
                    </g>
                </g>
            </g>
            <g id="Group_19" data-name="Group 19">
                <g id="Group_18" data-name="Group 18">
                    <path id="Path_4" data-name="Path 4" d="M122.064,7.45v7.714L106.9,0h7.714"
                        transform="translate(-88.073)" fill="#fcfcfc" fill-rule="evenodd"></path>
                    <rect id="Rectangle_25" data-name="Rectangle 25" width="5.46" height="29.147"
                        transform="translate(8.652 4.844) rotate(-45)" fill="#fcfcfc"></rect>
                    <rect id="Rectangle_26" data-name="Rectangle 26" width="5.46" height="29.165"
                        transform="translate(1.147 12.344) rotate(-45)" fill="#fcfcfc"></rect>
                    <path id="Path_5" data-name="Path 5" d="M0,105l15.322,15.322H7.608L0,112.714Z"
                        transform="translate(0 -86.508)" fill="#fcfcfc" fill-rule="evenodd"></path>
                </g>
            </g>
        </g>
    </g>
</svg>