<svg width="500" height="157" viewBox="0 0 500 157" fill="none" xmlns="http://www.w3.org/2000/svg">
<path fill-rule="evenodd" clip-rule="evenodd" d="M20.3319 87.5486C23.0837 90.8931 29.81 96.2129 38.3699 96.2129C49.0721 96.2129 55.9514 88.7657 55.9514 71.437C55.9514 54.8703 50.2949 46.0538 38.8289 46.0538C30.8798 46.0538 24.1535 51.5258 20.3319 56.2383V87.5486ZM0 141.659V31.0073H16.8164L18.9561 41.4947C26.1414 33.439 34.7014 29.1829 45.2492 29.1829C64.6643 29.1829 77.5049 43.3179 77.5049 70.8297C77.5049 96.9723 66.1932 113.084 43.7216 113.084C31.4919 113.084 23.6944 106.853 20.3319 103.205V141.659H0V141.659Z" fill="#201B1B"/>
<path fill-rule="evenodd" clip-rule="evenodd" d="M91.2419 87.0921C98.885 92.8683 108.975 97.4287 116.771 97.4287C124.108 97.4287 128.083 94.2363 128.083 89.2208C128.083 83.901 125.331 81.4693 112.032 78.1248C94.6044 73.7178 87.2673 67.1809 87.2673 53.9575C87.2673 38.4545 99.4971 29.1829 117.841 29.1829C130.682 29.1829 141.536 33.7432 149.944 41.3426L140.925 53.0459C133.28 47.574 125.79 44.535 118.759 44.535C111.268 44.535 107.598 47.1188 107.598 51.6779C107.598 57.6063 112.95 59.2773 125.179 62.7726C142.301 67.6373 150.097 73.2614 150.097 86.637C150.097 103.661 137.408 113.236 117.841 113.236C103.013 113.236 90.4781 107.155 82.2229 99.2518L91.2419 87.0921" fill="#201B1B"/>
<path fill-rule="evenodd" clip-rule="evenodd" d="M228.569 31.0072L201.358 108.067C193.256 131.171 189.587 142.116 168.339 142.116C163.905 142.116 159.318 141.507 154.733 140.29L156.262 126.003C158.708 126.459 162.376 127.068 166.504 127.068C172.313 127.068 176.441 125.548 179.65 115.82L180.415 113.54L152.286 31.0072H173.536L190.199 90.2844L208.237 31.0072H228.569" fill="#201B1B"/>
<path fill-rule="evenodd" clip-rule="evenodd" d="M255.272 58.6687H265.209L282.941 31.0073H305.261L281.259 66.5736L308.93 111.259H285.234L263.833 75.3888H255.272V111.259H234.94V1.82446H255.272V58.6687Z" fill="#201B1B"/>
<path fill-rule="evenodd" clip-rule="evenodd" d="M316.872 111.259H337.05V31.0073H316.872V111.259V111.259ZM327.267 0C334.451 0 339.496 3.64753 339.496 10.4875C339.496 17.0231 334.451 20.6706 327.267 20.6706C320.54 20.6706 315.189 17.0231 315.189 10.4875C315.189 3.64753 320.54 0 327.267 0V0Z" fill="#201B1B"/>
<path fill-rule="evenodd" clip-rule="evenodd" d="M355.392 87.0921C363.035 92.8683 373.125 97.4287 380.921 97.4287C388.259 97.4287 392.234 94.2363 392.234 89.2208C392.234 83.901 389.482 81.4693 376.183 78.1248C358.755 73.7178 351.418 67.1809 351.418 53.9575C351.418 38.4545 363.647 29.1829 381.992 29.1829C394.833 29.1829 405.687 33.7432 414.094 41.3426L405.075 53.0459C397.431 47.574 389.94 44.535 382.909 44.535C375.418 44.535 371.749 47.1188 371.749 51.6779C371.749 57.6063 377.099 59.2773 389.328 62.7726C406.45 67.6373 414.248 73.2614 414.248 86.637C414.248 103.661 401.559 113.236 381.992 113.236C367.162 113.236 354.628 107.155 346.373 99.2518L355.392 87.0921" fill="#201B1B"/>
<path fill-rule="evenodd" clip-rule="evenodd" d="M446.344 58.6687H456.278L474.013 31.0073H496.331L472.331 66.5736L500 111.259H476.305L454.903 75.3888H446.344V111.259H426.012V1.82446H446.344V58.6687Z" fill="#201B1B"/>
<path fill-rule="evenodd" clip-rule="evenodd" d="M352.991 116.271V130.48C355.111 128.147 358.35 126.26 362.089 126.26C368.008 126.26 371.245 130.091 371.245 136.641V156.234H363.821V138.472C363.821 135.087 363.038 132.533 359.132 132.533C356.563 132.533 354.329 134.31 352.991 135.806V156.234H345.565V116.271H352.991Z" fill="#201B1B"/>
<path fill-rule="evenodd" clip-rule="evenodd" d="M396.161 138.749C396.161 135.03 394.82 131.812 390.632 131.812C385.72 131.812 384.268 136.363 384.157 138.749H396.161ZM402.468 153.182C399.006 155.733 394.986 156.956 390.521 156.956C381.645 156.956 376.285 151.627 376.285 141.802C376.285 132.367 381.813 126.26 390.577 126.26C398.727 126.26 403.249 130.977 403.249 140.469C403.249 141.137 403.194 143.579 403.137 144.078H384.102C384.437 148.075 386.391 150.85 391.414 150.85C394.373 150.85 396.773 150.073 400.067 148.352L402.468 153.182V153.182Z" fill="#201B1B"/>
<path fill-rule="evenodd" clip-rule="evenodd" d="M408.995 156.234H416.42V116.271H408.995V156.234Z" fill="#201B1B"/>
<path fill-rule="evenodd" clip-rule="evenodd" d="M424.23 147.408C427.022 149.517 431.076 151.182 433.924 151.182C436.603 151.182 437.684 150.017 437.684 148.185C437.684 146.243 436.678 145.354 431.822 144.134C425.459 142.523 422.779 140.138 422.779 135.308C422.779 129.647 427.244 126.26 433.945 126.26C438.633 126.26 442.597 127.925 445.668 130.7L442.374 134.975C439.583 132.975 436.847 131.866 434.279 131.866C431.542 131.866 430.204 132.812 430.204 134.475C430.204 136.641 432.158 137.251 436.623 138.527C442.876 140.303 445.723 142.356 445.723 147.242C445.723 153.458 441.089 156.956 433.945 156.956C428.53 156.956 423.953 154.735 420.937 151.849L424.23 147.408" fill="#201B1B"/>
<path fill-rule="evenodd" clip-rule="evenodd" d="M469.241 138.749C469.241 135.03 467.902 131.812 463.714 131.812C458.802 131.812 457.35 136.363 457.239 138.749H469.241ZM475.55 153.182C472.088 155.733 468.068 156.956 463.603 156.956C454.726 156.956 449.367 151.627 449.367 141.802C449.367 132.367 454.895 126.26 463.659 126.26C471.808 126.26 476.331 130.977 476.331 140.469C476.331 141.137 476.276 143.579 476.218 144.078H457.184C457.519 148.075 459.473 150.85 464.496 150.85C467.454 150.85 469.854 150.073 473.149 148.352L475.55 153.182V153.182Z" fill="#201B1B"/>
</svg>
